<?xml version="1.0"?>
<svg xmlns="http://www.w3.org/2000/svg" viewBox="0 -27 512 512" width="512px" height="512px"><path d="m482 254h-40.90625c-5.519531 0-10 4.476562-10 10s4.480469 10 10 10h40.90625c5.515625 0 10 4.484375 10 10v46.5c0 58.773438-47.414062 106.675781-106 107.480469v-93.980469c0-18.746094-15.253906-34-34-34h-86v-36h85.921875c5.519531 0 10-4.476562 10-10s-4.480469-10-10-10h-48.132813c12.011719-12.152344 19.441407-28.835938 19.441407-47.230469 0-40.273437-20.515625-77.144531-60.972657-109.589843-3-2.40625-7.117187-2.878907-10.582031-1.214844-3.46875 1.664062-5.675781 5.167968-5.675781 9.015625 0 18.4375-11.417969 29.113281-24.636719 41.476562-15.277343 14.285157-32.59375 30.476563-32.59375 60.316407 0 18.390624 7.429688 35.078124 19.441407 47.226562h-178.210938c-16.542969 0-30 13.460938-30 30v46.5c0 70.304688 57.195312 127.5 127.5 127.5h257c70.304688 0 127.5-57.195312 127.5-127.5v-46.5c0-16.542969-13.457031-30-30-30zm-246.976562-92.9375c10.679687-9.984375 22.40625-20.953125 27.863281-36.84375 26.785156 25.414062 40.34375 53.121094 40.34375 82.550781 0 25.609375-20.488281 46.503907-45.929688 47.199219-.429687-.058594-.859375-.097656-1.300781-.097656s-.875.039062-1.300781.097656c-25.441407-.695312-45.929688-21.589844-45.929688-47.199219 0-21.15625 12.167969-32.535156 26.253907-45.707031zm-215.023438 169.4375v-46.5c0-5.515625 4.484375-10 10-10h216v36h-86c-18.746094 0-34 15.253906-34 34v93.980469c-58.585938-.804688-106-48.707031-106-107.480469zm126 107.5v-94c0-7.71875 6.28125-14 14-14h192c7.71875 0 14 6.28125 14 14v9.980469h-146.84375c-5.523438 0-10 4.476562-10 10 0 5.523437 4.476562 10 10 10h146.84375v64.019531zm0 0" fill="#933EC5"/><path d="m384.710938 264c0 2.628906 1.066406 5.210938 2.929687 7.070312 1.859375 1.859376 4.4375 2.929688 7.070313 2.929688 2.640624 0 5.210937-1.070312 7.078124-2.929688 1.859376-1.859374 2.921876-4.441406 2.921876-7.070312s-1.0625-5.210938-2.921876-7.070312c-1.867187-1.859376-4.4375-2.929688-7.078124-2.929688-2.632813 0-5.199219 1.070312-7.070313 2.929688-1.863281 1.859374-2.929687 4.441406-2.929687 7.070312zm0 0" fill="#933EC5"/><path d="m408 33.8125c5.523438 0 10-4.476562 10-10v-13.8125c0-5.523438-4.476562-10-10-10s-10 4.476562-10 10v13.8125c0 5.523438 4.476562 10 10 10zm0 0" fill="#933EC5"/><path d="m408 100c5.523438 0 10-4.476562 10-10v-13.8125c0-5.523438-4.476562-10-10-10s-10 4.476562-10 10v13.8125c0 5.523438 4.476562 10 10 10zm0 0" fill="#933EC5"/><path d="m434.1875 60h13.8125c5.523438 0 10-4.476562 10-10s-4.476562-10-10-10h-13.8125c-5.523438 0-10 4.476562-10 10s4.476562 10 10 10zm0 0" fill="#933EC5"/><path d="m368 60h13.8125c5.523438 0 10-4.476562 10-10s-4.476562-10-10-10h-13.8125c-5.523438 0-10 4.476562-10 10s4.476562 10 10 10zm0 0" fill="#933EC5"/><path d="m102.90625 149.863281c5.519531 0 10-4.476562 10-10v-13.8125c0-5.523437-4.480469-10-10-10-5.523438 0-10 4.476563-10 10v13.8125c0 5.523438 4.476562 10 10 10zm0 0" fill="#933EC5"/><path d="m102.90625 216.050781c5.519531 0 10-4.476562 10-10v-13.8125c0-5.519531-4.480469-10-10-10-5.523438 0-10 4.480469-10 10v13.8125c0 5.523438 4.476562 10 10 10zm0 0" fill="#933EC5"/><path d="m129.09375 176.050781h13.8125c5.523438 0 10-4.476562 10-10 0-5.523437-4.476562-10-10-10h-13.8125c-5.519531 0-10 4.476563-10 10 0 5.523438 4.476562 10 10 10zm0 0" fill="#933EC5"/><path d="m62.90625 176.050781h13.8125c5.519531 0 10-4.476562 10-10 0-5.523437-4.480469-10-10-10h-13.8125c-5.523438 0-10 4.476563-10 10 0 5.523438 4.476562 10 10 10zm0 0" fill="#933EC5"/><path d="m178.390625 353.980469c-2.640625 0-5.210937 1.070312-7.082031 2.929687-1.859375 1.859375-2.917969 4.441406-2.917969 7.070313 0 2.628906 1.058594 5.210937 2.917969 7.070312 1.871094 1.859375 4.441406 2.929688 7.082031 2.929688 2.628906 0 5.210937-1.070313 7.070313-2.929688 1.859374-1.859375 2.917968-4.441406 2.917968-7.070312 0-2.628907-1.058594-5.210938-2.917968-7.070313-1.871094-1.859375-4.441407-2.929687-7.070313-2.929687zm0 0" fill="#933EC5"/></svg>
